<?xml version="1.0" encoding="utf-8"?>
<!-- Generator: Adobe Illustrator 17.1.0, SVG Export Plug-In . SVG Version: 6.00 Build 0)  -->
<!DOCTYPE svg PUBLIC "-//W3C//DTD SVG 1.1//EN" "http://www.w3.org/Graphics/SVG/1.1/DTD/svg11.dtd">
<svg version="1.1" id="Layer_1" xmlns="http://www.w3.org/2000/svg" xmlns:xlink="http://www.w3.org/1999/xlink" x="0px" y="0px"
	 viewBox="0 0 1012.3 133" style="enable-background:new 0 0 1012.3 133;" xml:space="preserve">
<style type="text/css">
	.st0{fill:#6D655F;}
	.st1{fill:#ECEDE3;}
	.st2{fill:#D26E28;}
	.st3{fill:#C0522A;}
	.st4{fill:#6F6A66;}
	.st5{fill:#464544;}
	.st6{fill:#FFFFFF;}
</style>
<g>
	<path class="st0" d="M217.5,70.6c0,10.2-4.2,18.5-12.6,24.8c-7.4,5.5-16.5,8.3-27.4,8.3c-11,0-20.2-2.8-27.6-8.4
		c-8.4-6.3-12.6-14.6-12.6-24.8c0-10,4.3-18.2,12.8-24.7c7.5-5.6,16.6-8.5,27.4-8.5c10.9,0,20,2.8,27.3,8.5
		C213.3,52.3,217.5,60.5,217.5,70.6z M206.7,70.6c0-7.3-3.1-13.2-9.3-17.8c-5.3-3.9-12-5.9-19.9-5.9c-8.7,0-15.8,2.2-21.2,6.7
		c-5.5,4.5-8.2,10.1-8.2,17c0,7.1,2.7,12.8,8,17.1c5.3,4.3,12.5,6.5,21.4,6.5c8.9,0,15.9-2.2,21.3-6.6
		C204.1,83.3,206.7,77.6,206.7,70.6z"/>
	<path class="st0" d="M284.6,39.4c6.4,0,11.4,1.8,15.2,5.3c3.7,3.5,5.6,8.3,5.6,14.2c0,6.2-1.9,11-5.8,14.2c-3.9,3.3-9.5,4.9-17,4.9
		h-37.2v23.8h-10.4V39.4H284.6z M282.8,68.7c8,0,12-3.2,12-9.7c0-6.9-4.2-10.4-12.7-10.4h-36.7v20H282.8z"/>
	<path class="st0" d="M382.7,101.9h-65.4V39.4h63v9.3h-52.6v16h36.6v9.3h-36.6v18.5h55V101.9z"/>
	<path class="st0" d="M469.2,101.9h-12.9l-47.7-51.2v51.2h-10.4V39.4h12.9l47.7,51.2V39.4h10.4V101.9z"/>
	<path class="st0" d="M596.6,54.1c-9.3-4.7-18.7-7.1-28.3-7.1c-6.4,0-11.3,0.7-14.7,2.2c-3.4,1.5-5.1,3.6-5.1,6.2
		c0,2.8,1.8,4.8,5.4,6c2.6,0.9,6.8,1.6,12.7,1.9c8.6,0.6,14.3,1,17.1,1.4c7.8,1,13.6,3,17.3,5.8c3.7,2.8,5.6,6.8,5.6,12
		c0,6.6-2.9,11.7-8.8,15.4c-5.9,3.6-14.3,5.4-25.3,5.4c-15.9,0-28.3-3.5-37.2-10.5l5.7-7.5c9.8,6,20.3,9,31.6,9c7.3,0,13-1,17-3
		c3.9-2,5.8-4.6,5.8-8c0-4-2.5-6.6-7.6-7.9c-2.6-0.7-9.8-1.4-21.4-2.2c-10.3-0.7-17.5-2.1-21.7-4.1c-4.8-2.4-7.2-6.5-7.2-12.2
		c0-5.9,2.7-10.5,8.2-13.9c5.5-3.4,13.2-5.1,23.2-5.1c13.5,0,24.7,3.1,33.8,9.2L596.6,54.1z"/>
	<path class="st0" d="M684.2,48.7h-29.8v53.1H644V48.7h-29.8v-9.3h70V48.7z"/>
	<path class="st0" d="M766.3,101.9H755l-7.2-14h-42.1l-7.2,14h-11.3l33-62.5h13L766.3,101.9z M742.8,78.6l-15.9-30.3l-16.1,30.3
		H742.8z"/>
	<path class="st0" d="M839.4,48.7h-29.8v53.1h-10.4V48.7h-29.9v-9.3h70.1V48.7z"/>
	<path class="st0" d="M917,101.9h-65.4V39.4h63v9.3h-52.6v16h36.6v9.3h-36.6v18.5h55V101.9z"/>
	<path class="st0" d="M987.4,54.1c-9.3-4.7-18.7-7.1-28.3-7.1c-6.4,0-11.3,0.7-14.7,2.2c-3.4,1.5-5.1,3.6-5.1,6.2
		c0,2.8,1.8,4.8,5.4,6c2.6,0.9,6.8,1.6,12.7,1.9c8.6,0.6,14.3,1,17.1,1.4c7.8,1,13.6,3,17.3,5.8c3.7,2.8,5.6,6.8,5.6,12
		c0,6.6-2.9,11.7-8.8,15.4c-5.9,3.6-14.3,5.4-25.3,5.4c-15.9,0-28.3-3.5-37.2-10.5l5.7-7.5c9.8,6,20.3,9,31.6,9c7.3,0,13-1,17-3
		c3.9-2,5.8-4.6,5.8-8c0-4-2.5-6.6-7.6-7.9c-2.6-0.7-9.8-1.4-21.4-2.2c-10.3-0.7-17.5-2.1-21.7-4.1c-4.8-2.4-7.2-6.5-7.2-12.2
		c0-5.9,2.7-10.5,8.2-13.9c5.5-3.4,13.2-5.1,23.2-5.1c13.5,0,24.7,3.1,33.8,9.2L987.4,54.1z"/>
</g>
<path class="st1" d="M104.5,16.4c0,0-18.7,6.3-39.4,0.1v-0.1c-0.1,0-0.1,0-0.2,0.1c-0.1,0-0.1,0-0.2-0.1v0.1
	c-20.7,6.2-39.4-0.1-39.4-0.1s-53.8,73.3,39.4,111.8v0.2c0.1,0,0.1,0,0.2-0.1c0.1,0,0.1,0.1,0.2,0.1v-0.2
	C158.3,89.7,104.5,16.4,104.5,16.4z"/>
<path class="st2" d="M112.2,45.6c-4.1-14.2-11.4-24.1-11.4-24.1s-17,5.8-35.8,0.1v-0.1c-0.1,0-0.1,0-0.2,0.1c-0.1,0-0.1,0-0.2-0.1
	v0.1c-18.9,5.7-35.9-0.1-35.9-0.1s-7.3,9.9-11.4,24.1H112.2z"/>
<path class="st3" d="M42.7,23.9c-8.3-0.5-13.9-2.4-13.9-2.4s-7.3,9.9-11.4,24.1h17.6C35.1,45.6,38.1,33.4,42.7,23.9z"/>
<path class="st4" d="M16.3,50.1c-4.9,22.4-0.3,52.9,48.4,73v0.1c0.1,0,0.1,0,0.2-0.1c0.1,0,0.1,0,0.2,0.1v-0.1
	c48.7-20.1,53.3-50.6,48.4-73H16.3z"/>
<path class="st5" d="M16.3,50.1c-4.9,22.4-0.3,52.9,48.4,73v0.1c0.1,0,0.1,0,0.2-0.1c0.1,0,0.1,0,0.2,0.1v-0.1
	C26,85.7,34,50.1,34,50.1H16.3z"/>
<g>
	<rect x="34" y="80.8" class="st6" width="16.5" height="13.8"/>
	<rect x="56.7" y="70.5" class="st6" width="16.5" height="24.1"/>
	<rect x="79.4" y="60.2" class="st6" width="16.5" height="34.5"/>
</g>
<circle class="st2" cx="504.4" cy="46.3" r="8.3"/>
<path class="st2" d="M512.7,93.4c0,4.6-3.7,8.3-8.3,8.3c-4.6,0-8.3-3.7-8.3-8.3c0-4.6,3.7-8.3,8.3-8.3
	C508.9,85.1,512.7,88.9,512.7,93.4z"/>
</svg>
