<?xml version="1.0" encoding="utf-8"?>
<!-- Generator: Adobe Illustrator 17.1.0, SVG Export Plug-In . SVG Version: 6.00 Build 0)  -->
<!DOCTYPE svg PUBLIC "-//W3C//DTD SVG 1.1//EN" "http://www.w3.org/Graphics/SVG/1.1/DTD/svg11.dtd">
<svg version="1.1" id="Layer_1" xmlns="http://www.w3.org/2000/svg" xmlns:xlink="http://www.w3.org/1999/xlink" x="0px" y="0px"
	 viewBox="0 0 1012.3 133" style="enable-background:new 0 0 1012.3 133;" xml:space="preserve">
<style type="text/css">
	.st0{fill:#4D4D4D;}
	.st1{fill:#ECECEC;}
	.st2{fill:#787878;}
	.st3{fill:#6A6A6A;}
	.st4{fill:#3B3B3B;}
	.st5{fill:#FFFFFF;}
</style>
<g>
	<path class="st0" d="M220.3,63.1c0,10.2-4.2,18.5-12.6,24.8c-7.4,5.5-16.5,8.3-27.4,8.3c-11,0-20.2-2.8-27.6-8.4
		c-8.4-6.3-12.6-14.6-12.6-24.7c0-10,4.3-18.2,12.8-24.6c7.5-5.6,16.6-8.4,27.4-8.4c10.9,0,20,2.8,27.3,8.4
		C216.1,44.9,220.3,53.1,220.3,63.1z M209.6,63.1c0-7.3-3.1-13.2-9.3-17.8c-5.3-3.9-12-5.9-19.9-5.9c-8.7,0-15.7,2.2-21.2,6.7
		c-5.5,4.5-8.2,10.1-8.2,16.9c0,7.1,2.7,12.8,8,17.1c5.3,4.3,12.5,6.5,21.4,6.5c8.8,0,15.9-2.2,21.2-6.5
		C206.9,75.8,209.6,70.1,209.6,63.1z"/>
	<path class="st0" d="M287.4,32c6.4,0,11.4,1.8,15.2,5.3c3.7,3.5,5.6,8.3,5.6,14.2c0,6.2-1.9,10.9-5.8,14.2
		c-3.9,3.3-9.5,4.9-16.9,4.9h-37.1v23.8h-10.3V32H287.4z M285.6,61.3c8,0,12-3.2,12-9.6c0-6.9-4.2-10.3-12.7-10.3h-36.6v20H285.6z"
		/>
	<path class="st0" d="M385.4,94.4H320V32H383v9.3h-52.6v16h36.5v9.3h-36.5v18.4h55V94.4z"/>
	<path class="st0" d="M471.8,94.4h-12.9l-47.6-51.2v51.2H401V32h12.8l47.7,51.2V32h10.3V94.4z"/>
	<path class="st0" d="M599.1,46.7c-9.3-4.7-18.7-7.1-28.3-7.1c-6.4,0-11.3,0.7-14.6,2.2c-3.4,1.5-5.1,3.6-5.1,6.2
		c0,2.8,1.8,4.8,5.4,6c2.6,0.9,6.8,1.5,12.7,1.9c8.6,0.6,14.3,1,17.1,1.4c7.8,1,13.6,3,17.3,5.8c3.7,2.8,5.6,6.8,5.6,12
		c0,6.6-2.9,11.7-8.8,15.3c-5.9,3.6-14.3,5.4-25.2,5.4c-15.9,0-28.3-3.5-37.1-10.5l5.7-7.5c9.8,6,20.3,9,31.5,9c7.3,0,13-1,17-3
		c3.9-2,5.8-4.6,5.8-8c0-4-2.5-6.6-7.6-7.9c-2.6-0.7-9.8-1.4-21.4-2.2c-10.3-0.7-17.5-2.1-21.6-4.1c-4.8-2.4-7.2-6.5-7.2-12.2
		c0-5.9,2.7-10.5,8.2-13.9c5.5-3.4,13.2-5.1,23.2-5.1c13.4,0,24.7,3.1,33.8,9.2L599.1,46.7z"/>
	<path class="st0" d="M686.5,41.3h-29.8v53.1h-10.3V41.3h-29.8V32h70V41.3z"/>
	<path class="st0" d="M768.6,94.4h-11.3l-7.2-14h-42l-7.2,14h-11.3l33-62.4h13L768.6,94.4z M745.1,71.1l-15.9-30.2l-16.1,30.2H745.1
		z"/>
	<path class="st0" d="M841.6,41.3h-29.8v53.1h-10.3V41.3h-29.8V32h70V41.3z"/>
	<path class="st0" d="M919,94.4h-65.3V32h62.9v9.3h-52.6v16h36.5v9.3h-36.5v18.4h55V94.4z"/>
	<path class="st0" d="M989.4,46.7c-9.3-4.7-18.7-7.1-28.3-7.1c-6.4,0-11.3,0.7-14.7,2.2c-3.4,1.5-5.1,3.6-5.1,6.2
		c0,2.8,1.8,4.8,5.4,6c2.6,0.9,6.8,1.5,12.7,1.9c8.6,0.6,14.3,1,17.1,1.4c7.8,1,13.6,3,17.3,5.8c3.7,2.8,5.6,6.8,5.6,12
		c0,6.6-2.9,11.7-8.8,15.3c-5.9,3.6-14.3,5.4-25.2,5.4c-15.9,0-28.3-3.5-37.1-10.5l5.7-7.5c9.8,6,20.3,9,31.5,9c7.3,0,13-1,17-3
		c3.8-2,5.8-4.6,5.8-8c0-4-2.5-6.6-7.6-7.9c-2.6-0.7-9.8-1.4-21.4-2.2c-10.3-0.7-17.5-2.1-21.6-4.1c-4.8-2.4-7.2-6.5-7.2-12.2
		c0-5.9,2.7-10.5,8.2-13.9c5.5-3.4,13.2-5.1,23.2-5.1c13.4,0,24.7,3.1,33.8,9.2L989.4,46.7z"/>
</g>
<path class="st1" d="M107.4,9c0,0-18.7,6.3-39.4,0.1V9c-0.1,0-0.1,0-0.2,0.1c-0.1,0-0.1,0-0.2-0.1v0.1C47,15.3,28.3,9,28.3,9
	s-53.8,73.2,39.4,111.7v0.2c0.1,0,0.1,0,0.2-0.1c0.1,0,0.1,0.1,0.2,0.1v-0.2C161.2,82.3,107.4,9,107.4,9z"/>
<path class="st2" d="M115.2,38.2c-4.1-14.2-11.3-24.1-11.3-24.1s-17,5.7-35.8,0.1v-0.1c-0.1,0-0.1,0-0.2,0c-0.1,0-0.1,0-0.2,0v0.1
	c-18.8,5.6-35.8-0.1-35.8-0.1S24.6,24,20.5,38.2H115.2z"/>
<path class="st3" d="M45.8,16.5c-8.3-0.6-13.9-2.4-13.9-2.4S24.6,24,20.5,38.2h17.6C38.1,38.2,41.1,26,45.8,16.5z"/>
<path class="st0" d="M19.4,42.7c-4.9,22.3-0.3,52.8,48.3,72.9v0.1c0.1,0,0.1,0,0.2-0.1c0.1,0,0.1,0,0.2,0.1v-0.1
	c48.6-20.1,53.2-50.5,48.3-72.9H19.4z"/>
<path class="st4" d="M19.4,42.7c-4.9,22.3-0.3,52.8,48.3,72.9v0.1c0.1,0,0.1,0,0.2-0.1c0.1,0,0.1,0,0.2,0.1v-0.1
	C29,78.2,37,42.7,37,42.7H19.4z"/>
<g>
	<rect x="37" y="73.4" class="st5" width="16.5" height="13.8"/>
	<rect x="59.7" y="63.1" class="st5" width="16.5" height="24.1"/>
	<rect x="82.4" y="52.7" class="st5" width="16.5" height="34.4"/>
</g>
<path class="st2" d="M515.2,38.9c0,4.6-3.7,8.3-8.3,8.3c-4.6,0-8.3-3.7-8.3-8.3c0-4.6,3.7-8.3,8.3-8.3
	C511.5,30.5,515.2,34.3,515.2,38.9z"/>
<path class="st2" d="M515.2,86c0,4.6-3.7,8.3-8.3,8.3c-4.6,0-8.3-3.7-8.3-8.3c0-4.6,3.7-8.3,8.3-8.3C511.5,77.7,515.2,81.4,515.2,86
	z"/>
</svg>
